<svg width="123" height="34" viewBox="0 0 123 34" fill="none" xmlns="http://www.w3.org/2000/svg">
<g clip-path="url(#clip0_45_6)">
<path d="M47.8298 12.8946L50.215 10.5272C51.2474 11.6073 52.3865 12.1872 53.885 12.1872C55.1504 12.1872 55.8688 11.7316 55.8688 10.9829C55.8688 8.53266 48.8654 9.6319 48.8654 4.50211C48.8654 1.69825 51.0597 0.0159302 54.3089 0.0159302C56.4611 0.0159302 58.3802 0.783806 59.5615 2.05192L57.1569 4.40015C56.2507 3.50801 55.3866 3.0715 54.2668 3.0715C53.2345 3.0715 52.6001 3.42517 52.6001 4.1102C52.6001 6.39471 59.5809 5.31459 59.5809 10.6101C59.5809 13.5382 57.3672 15.2205 53.6099 15.2205C51.0791 15.2205 49.3476 14.494 47.8298 12.8946Z" fill="#1D1D1D"/>
<path d="M60.6003 7.5991C60.6003 3.25949 64.0178 0 68.594 0C73.1701 0 76.5877 3.25949 76.5877 7.6214C76.5877 11.9833 73.1701 15.2651 68.6361 15.2651C64.102 15.2651 60.6003 11.9419 60.6003 7.60229V7.5991ZM72.7268 7.5991C72.7268 5.00234 71.0827 3.30091 68.594 3.30091C66.1053 3.30091 64.4612 5.00234 64.4612 7.5991C64.4612 10.1959 66.0859 11.9387 68.594 11.9387C71.1021 11.9387 72.7268 10.2373 72.7268 7.5991Z" fill="#1D1D1D"/>
<path d="M78.1832 9.11573V0.270826H81.9373V9.38656C81.9373 10.986 83.0959 11.9196 84.5749 11.9196C86.0539 11.9196 87.1478 10.986 87.1478 9.40568V0.270826H90.944V9.13804C90.944 12.6907 88.3905 15.2237 84.5749 15.2237C80.7593 15.2237 78.1832 12.6684 78.1832 9.11892V9.11573Z" fill="#1D1D1D"/>
<path d="M93.245 0.270826H95.8826L102.591 8.64099V0.270826H106.368V14.9943H103.562L97.025 6.83441V14.9943H93.2482V0.270826H93.245Z" fill="#1D1D1D"/>
<path d="M108.838 0.270826H114.996C119.595 0.270826 122.99 3.24037 122.99 7.6214C122.99 12.0024 119.595 14.9943 115.038 14.9943H108.838V0.270826ZM112.611 3.46659V11.7953H114.974C117.504 11.7953 119.129 10.3201 119.129 7.5991C119.129 4.87808 117.485 3.46659 114.974 3.46659H112.611Z" fill="#1D1D1D"/>
<path d="M48.8525 18.9866H59.8657V22.1346H52.6422V24.6995H59.2281V27.7646H52.6422V30.6226H59.9919V33.7706H48.8525V18.9866Z" fill="#1D1D1D"/>
<path d="M66.0341 22.1983H61.4385V18.9866H74.4226V22.1983H69.827V33.7706H66.0373V22.1983H66.0341Z" fill="#1D1D1D"/>
<path d="M75.8336 18.9866H79.6233V24.6389H85.0248V18.9866H88.8145V33.7706H85.0248V27.7646H79.6233V33.7706H75.8336V18.9866Z" fill="#1D1D1D"/>
<path d="M91.1187 18.9866H94.9084V33.7706H91.1187V18.9866Z" fill="#1D1D1D"/>
<path d="M96.7143 26.3659C96.7143 22.0071 100.167 18.7349 104.698 18.7349C107.071 18.7349 108.977 19.5283 110.394 20.8187L107.854 23.3198C107.135 22.5265 106.096 22.0677 104.698 22.0677C102.284 22.0677 100.569 23.7372 100.569 26.3627C100.569 28.9881 102.284 30.68 104.698 30.68C106.116 30.68 107.155 30.2435 107.938 29.4278L110.478 31.929C109.016 33.2226 107.216 33.9936 104.737 33.9936C100.184 33.9936 96.7111 30.7214 96.7111 26.3627L96.7143 26.3659Z" fill="#1D1D1D"/>
<path d="M111.181 31.6645L113.576 29.2876C114.614 30.3709 115.757 30.9572 117.262 30.9572C118.534 30.9572 119.252 30.4984 119.252 29.7464C119.252 27.2867 112.219 28.3923 112.219 23.2402C112.219 20.4236 114.423 18.7349 117.682 18.7349C119.844 18.7349 121.77 19.506 122.958 20.7772L120.543 23.135C119.634 22.2397 118.763 21.8 117.64 21.8C116.601 21.8 115.967 22.1537 115.967 22.8419C115.967 25.136 122.977 24.0527 122.977 29.3673C122.977 32.3081 120.754 33.9968 116.983 33.9968C114.443 33.9968 112.705 33.2672 111.181 31.6613V31.6645Z" fill="#1D1D1D"/>
<path d="M42.0465 29.8324L18.0266 33.7706V30.8138L0.0100708 33.7674V27.8538L24.03 23.9157V26.8725L42.0465 23.922V29.8324Z" fill="#1D1D1D"/>
<path d="M42.0465 18.0084L18.0266 21.9466V18.9898L0.0100708 21.9402V4.20579L24.03 0.267641V3.22444L42.0465 0.270827V6.18442L18.0266 10.1194V7.16578L6.01667 9.13167V15.0453L24.03 12.0917V15.0484L42.0465 12.098V18.0084Z" fill="#1D1D1D"/>
</g>
<defs>
<clipPath id="clip0_45_6">
<rect width="123" height="34" fill="white"/>
</clipPath>
</defs>
</svg>
